<svg width="22" height="20" viewBox="0 0 22 20" fill="none" xmlns="http://www.w3.org/2000/svg">
<path fill-rule="evenodd" clip-rule="evenodd" d="M4.624 2.42358C2.965 3.18158 1.75 4.98558 1.75 7.13658C1.75 9.33358 2.65 11.0276 3.938 12.4796C5.001 13.6756 6.287 14.6676 7.541 15.6336C7.839 15.8636 8.135 16.0926 8.426 16.3216C8.952 16.7366 9.421 17.0996 9.874 17.3646C10.326 17.6286 10.69 17.7496 11 17.7496C11.31 17.7496 11.674 17.6296 12.126 17.3646C12.579 17.0996 13.048 16.7366 13.574 16.3216C13.864 16.0916 14.161 15.8636 14.459 15.6336C15.713 14.6676 16.999 13.6756 18.062 12.4796C19.351 11.0276 20.25 9.33358 20.25 7.13658C20.25 4.98658 19.035 3.18158 17.376 2.42358C15.764 1.68658 13.598 1.88158 11.54 4.02058C11.47 4.09317 11.3862 4.1509 11.2934 4.19034C11.2006 4.22977 11.1008 4.2501 11 4.2501C10.8992 4.2501 10.7994 4.22977 10.7066 4.19034C10.6138 4.1509 10.53 4.09317 10.46 4.02058C8.402 1.88158 6.236 1.68658 4.624 2.42358ZM11 2.45958C8.688 0.389581 6.099 0.0995807 4 1.05858C1.786 2.07358 0.25 4.42558 0.25 7.13758C0.25 9.80258 1.36 11.8366 2.817 13.4766C3.983 14.7896 5.41 15.8886 6.671 16.8586C6.957 17.0786 7.234 17.2926 7.497 17.5006C8.01 17.9046 8.56 18.3346 9.117 18.6606C9.674 18.9856 10.31 19.2506 11 19.2506C11.69 19.2506 12.326 18.9856 12.883 18.6606C13.441 18.3346 13.99 17.9046 14.503 17.5006C14.7769 17.2847 15.0522 17.0707 15.329 16.8586C16.589 15.8886 18.017 14.7886 19.183 13.4766C20.64 11.8366 21.75 9.80258 21.75 7.13758C21.75 4.42558 20.215 2.07358 18 1.06058C15.901 0.100581 13.312 0.390581 11 2.45958Z" fill="#362C27"/>
</svg>
